<svg id="logo" xmlns="http://www.w3.org/2000/svg" viewBox="0 0 678.08 176.55"><defs><style>.cls-1{fill:#fff;}</style></defs><title>cloubi_logo</title><path class="cls-1" d="M120.42,156l-7.08-12.43a2.86,2.86,0,0,0-1.93-1.38,2.9,2.9,0,0,0-2.33.53c-0.25.19-.65,0.54-1.18,1-4.18,3.69-16.93,14.91-37.37,14.91-26.65,0-45.26-18.8-45.26-45.73S43.59,67.36,69.8,67.36c11.25,0,26.94,4.94,26.94,13v8.85A2.83,2.83,0,0,0,99.61,92H115a2.83,2.83,0,0,0,2.86-2.8V76c0-21-29.62-28.86-48.29-28.86-38.25,0-67.1,28.44-67.1,66.16,0,37.92,28.42,65.44,67.59,65.44a73.6,73.6,0,0,0,49.45-19.06l0.35-.32A2.76,2.76,0,0,0,120.42,156Z" transform="translate(-2.46 -2.23)"/><path class="cls-1" d="M183.12,156.44a3,3,0,0,0-.56.05,37.9,37.9,0,0,1-6.28.42c-7.86,0-11.06-4.38-11.06-15.13V5a2.83,2.83,0,0,0-2.86-2.8H124A2.83,2.83,0,0,0,121.15,5V18.42a2.83,2.83,0,0,0,2.86,2.8h18.88V143c0,27.8,16.7,33.64,30.71,33.64a73.41,73.41,0,0,0,10-.75A2.82,2.82,0,0,0,186,173.1V159.24a2.77,2.77,0,0,0-1-2.17,2.89,2.89,0,0,0-1.81-.64" transform="translate(-2.46 -2.23)"/><path class="cls-1" d="M256.17,47.17c-37.9,0-67.59,28.64-67.59,65.2,0,37.23,29.69,66.4,67.59,66.4S324,149.61,324,112.37C324,75.82,294.21,47.17,256.17,47.17Zm0,111.41c-25.1,0-44.77-20.3-44.77-46.21,0-25.24,19.66-45,44.77-45a44.54,44.54,0,0,1,45,45C301.19,138.29,281.41,158.59,256.17,158.59Z" transform="translate(-2.46 -2.23)"/><path class="cls-1" d="M473.31,157.15H459.39c-2,0-2.51-.53-2.51-2.46V52.84A2.83,2.83,0,0,0,454,50H415.43a2.83,2.83,0,0,0-2.86,2.8V66.23a2.83,2.83,0,0,0,2.86,2.8h19.12v41c0,23.66-15.83,48.12-42.33,48.12-20.08,0-24-12-24-32.82V52.84a2.83,2.83,0,0,0-2.86-2.8H326.76a2.83,2.83,0,0,0-2.86,2.8V66.23a2.83,2.83,0,0,0,2.86,2.8h19.12v60.32c0,33.72,13.72,49.42,43.16,49.42,23.91,0,38.58-12.63,46-23v3.92c0,10.74,5.89,16.19,17.52,16.19h20.76a2.83,2.83,0,0,0,2.86-2.8V160A2.83,2.83,0,0,0,473.31,157.15Z" transform="translate(-2.46 -2.23)"/><path class="cls-1" d="M552.84,47.17c-20.43,0-32.56,9.72-38.91,17.3V5a2.83,2.83,0,0,0-2.86-2.8H472.48A2.83,2.83,0,0,0,469.62,5V18.42a2.83,2.83,0,0,0,2.86,2.8H491.6V173.1a2.83,2.83,0,0,0,2.86,2.8h16.12a2.83,2.83,0,0,0,2.86-2.8V161.32c6.27,7.65,18.07,17.45,37.44,17.45,34.33,0,58.31-27,58.31-65.68C609.2,73.67,586.55,47.17,552.84,47.17Zm-3.18,111.41c-24.88,0-36.22-23.46-36.22-45.25,0-33.72,19.09-45.73,37-45.73,21.66,0,36.22,18.28,36.22,45.49C586.62,139.88,571.42,158.59,549.66,158.59Z" transform="translate(-2.46 -2.23)"/><path class="cls-1" d="M677.68,156.91h-17.9V52.85a2.83,2.83,0,0,0-2.86-2.8H618.32a2.83,2.83,0,0,0-2.86,2.8V66.23a2.84,2.84,0,0,0,2.86,2.8h19.12v87.88h-17.9a2.83,2.83,0,0,0-2.86,2.8V173.1a2.83,2.83,0,0,0,2.86,2.8h58.13a2.83,2.83,0,0,0,2.86-2.8V159.71a2.83,2.83,0,0,0-2.86-2.8" transform="translate(-2.46 -2.23)"/><path class="cls-1" d="M648,34.54a14.34,14.34,0,0,0,14.47-14.17,14.48,14.48,0,0,0-28.95,0A14.34,14.34,0,0,0,648,34.54" transform="translate(-2.46 -2.23)"/></svg>